<svg width="800.0000000000001" height="600" xmlns="http://www.w3.org/2000/svg">
 <!-- Created with Method Draw - http://github.com/duopixel/Method-Draw/ -->
 <g>
  <title>background</title>
  <rect fill="#ffffff" id="canvas_background" height="602" width="802" y="-1" x="-1"/>
  <g display="none" overflow="visible" y="0" x="0" height="100%" width="100%" id="canvasGrid">
   <rect fill="url(#gridpattern)" stroke-width="0" y="0" x="0" height="100%" width="100%"/>
  </g>
 </g>
 <g>
  <title>bg</title>
  <rect stroke="#eef2f5" rx="2" id="svg_1" height="26.54168" width="264.37761" y="237.61209" x="113.02381" stroke-width="1.5" fill="#eef2f5"/>
  <rect id="svg_2" height="0" width="1" y="331.43744" x="535.10002" stroke-width="1.5" stroke="#000" fill="#fff"/>
  <rect stroke="#eef2f5" transform="rotate(90 781.8114013671875,72.12116241455085) " rx="2" id="svg_20" height="26.54168" width="57.11802" y="58.85032" x="753.25238" stroke-width="1.5" fill="#eef2f5"/>
  <rect stroke="#eef2f5" transform="rotate(90 746.4489135742188,92.60449218750007) " rx="2" id="svg_21" height="26.54168" width="97.32678" y="79.33365" x="697.78551" stroke-width="1.5" fill="#eef2f5"/>
  <rect stroke="#eef2f5" transform="rotate(90 711.5453491210938,120.1031570434571) " rx="2" id="svg_22" height="26.54168" width="151.45865" y="106.83232" x="635.81603" stroke-width="1.5" fill="#eef2f5"/>
  <rect stroke="#eef2f5" rx="2" id="svg_23" height="26.54168" width="491.94862" y="42.31419" x="301.70805" stroke-width="1.5" fill="#eef2f5"/>
  <rect stroke="#eef2f5" transform="rotate(90 578.0844116210939,109.12499237060551) " rx="2" id="svg_24" height="26.54168" width="130.88713" y="95.85415" x="512.64072" stroke-width="1.5" fill="#eef2f5"/>
  <rect stroke="#eef2f5" transform="rotate(90 463.6453857421875,143.6630249023438) " rx="2" id="svg_25" height="26.54168" width="198.40311" y="130.39219" x="364.44384" stroke-width="1.5" fill="#eef2f5"/>
  <rect stroke="#eef2f5" rx="2" id="svg_26" height="26.54168" width="419.37688" y="199.42302" x="253.46612" stroke-width="1.5" fill="#eef2f5"/>
  <rect stroke="#eef2f5" rx="2" id="svg_27" height="26.54168" width="419.37688" y="147.50055" x="172.67565" stroke-width="1.5" fill="#eef2f5"/>
  <rect stroke="#eef2f5" transform="rotate(90 365.8294982910156,316.3898010253907) " rx="2" id="svg_28" height="26.54168" width="156.60153" y="303.11895" x="287.52872" stroke-width="1.5" fill="#eef2f5"/>
  <rect stroke="#eef2f5" rx="2" id="svg_29" height="26.54168" width="407.37684" y="294.2806" x="357.46659" stroke-width="1.5" fill="#eef2f5"/>
  <rect stroke="#eef2f5" transform="rotate(90 660.1165161132814,289.5325317382813) " rx="2" id="svg_30" height="26.54168" width="170.31588" y="276.2617" x="574.95857" stroke-width="1.5" fill="#eef2f5"/>
  <rect stroke="#eef2f5" rx="2" id="svg_31" height="26.54168" width="224.51885" y="348.02986" x="443.42299" stroke-width="1.5" fill="#eef2f5"/>
  <rect stroke="#eef2f5" rx="2" id="svg_32" height="26.54168" width="233.09033" y="105.70831" x="456.3242" stroke-width="1.5" fill="#eef2f5"/>
  <rect stroke="#eef2f5" transform="rotate(90 368.6866455078125,81.53157043457036) " rx="2" id="svg_33" height="26.54168" width="75.4583" y="68.26072" x="330.9575" stroke-width="1.5" fill="#eef2f5"/>
  <rect stroke="#eef2f5" transform="rotate(90 751.5454711914064,341.24707031250006) " rx="2" id="svg_34" height="26.54168" width="90.88696" y="327.97623" x="706.10202" stroke-width="1.5" fill="#eef2f5"/>
  <rect stroke="#eef2f5" rx="2" id="svg_35" height="26.54168" width="479.37714" y="412.56685" x="283.75198" stroke-width="1.5" fill="#eef2f5"/>
  <rect stroke="#eef2f5" transform="rotate(90 374.9724426269531,388.39013671875006) " rx="2" id="svg_37" height="26.54168" width="85.11814" y="321.42479" x="401.00324" stroke-width="1.5" fill="#eef2f5"/>
  <rect stroke="#eef2f5" transform="rotate(90 364.1152038574219,442.67611694335943) " rx="2" id="svg_38" height="26.54168" width="127.04121" y="401.35889" x="335.09614" stroke-width="1.5" fill="#eef2f5"/>
  <rect stroke="#eef2f5" transform="rotate(90 352.6865844726563,505.5335388183594) " rx="2" id="svg_39" height="26.54168" width="179.45878" y="488.26269" x="262.95714" stroke-width="1.5" fill="#eef2f5"/>
  <rect stroke="#eef2f5" transform="rotate(90 456.6871032714844,324.96127319335943) " rx="2" id="svg_40" height="26.54168" width="85.11814" y="257.99593" x="482.71789" stroke-width="1.5" fill="#eef2f5"/>
  <rect stroke="#eef2f5" transform="rotate(90 221.87510681152347,116.31887054443361) " rx="2" id="svg_42" height="26.54168" width="102.46966" y="103.04803" x="170.64027" stroke-width="1.5" fill="#eef2f5"/>
  <rect stroke="#eef2f5" transform="rotate(90 260.73242187500006,138.31896972656253) " rx="2" id="svg_43" height="26.54168" width="67.61237" y="125.04813" x="226.92624" stroke-width="1.5" fill="#eef2f5"/>
  <rect stroke="#eef2f5" rx="2" id="svg_44" height="26.54168" width="189.66156" y="329.1379" x="183.7515" stroke-width="1.5" fill="#eef2f5"/>
  <rect stroke="#eef2f5" transform="rotate(90 170.97151184082028,309.5326538085938) " rx="2" id="svg_45" height="26.54168" width="85.11814" y="242.56729" x="197.00231" stroke-width="1.5" fill="#eef2f5"/>
  <rect stroke="#eef2f5" transform="rotate(90 689.8309936523439,425.53317260742193) " rx="2" id="svg_46" height="26.54168" width="179.45878" y="408.26232" x="600.10154" stroke-width="1.5" fill="#eef2f5"/>
  <rect stroke="#eef2f5" transform="rotate(90 614.4020385742188,39.245639801025455) " rx="2" id="svg_47" height="26.54168" width="52.60106" y="25.97478" x="588.10154" stroke-width="1.5" fill="#eef2f5"/>
  <rect stroke="#eef2f5" transform="rotate(90 570.9733276367189,229.53227233886724) " rx="2" id="svg_48" height="26.54168" width="59.45823" y="216.26143" x="541.24414" stroke-width="1.5" fill="#eef2f5"/>
  <rect stroke="#eef2f5" transform="rotate(90 532.6873779296876,277.81823730468756) " rx="2" id="svg_49" height="26.54168" width="69.17256" y="264.54736" x="498.10107" stroke-width="1.5" fill="#eef2f5"/>
  <rect stroke="#eef2f5" rx="2" id="svg_50" height="26.54168" width="233.09033" y="241.13749" x="558.03894" stroke-width="1.5" fill="#eef2f5"/>
  <rect stroke="#eef2f5" rx="2" id="svg_51" height="26.54168" width="321.66216" y="450.85274" x="472.32426" stroke-width="1.5" fill="#eef2f5"/>
 </g>
</svg>