<svg width="800.0000000000001" height="600" xmlns="http://www.w3.org/2000/svg">
 <!-- Created with Method Draw - http://github.com/duopixel/Method-Draw/ -->
 <g>
  <title>background</title>
  <rect fill="#ffffff" id="canvas_background" height="602" width="802" y="-1" x="-1"/>
  <g display="none" overflow="visible" y="0" x="0" height="100%" width="100%" id="canvasGrid">
   <rect fill="url(#gridpattern)" stroke-width="0" y="0" x="0" height="100%" width="100%"/>
  </g>
 </g>
 <g>
  <title>Layer 1</title>
  <rect stroke="#eef2f5" rx="2" id="svg_31" height="26.54168" width="284.51912" y="352.60131" x="431.99436" stroke-width="1.5" fill="#eef2f5"/>
  <rect stroke="#eef2f5" transform="rotate(90 750.4026489257814,340.67562866210943) " rx="2" id="svg_34" height="26.54168" width="90.88696" y="327.4048" x="704.95916" stroke-width="1.5" fill="#eef2f5"/>
  <rect stroke="#eef2f5" transform="rotate(90 650.4022216796876,298.3897094726563) " rx="2" id="svg_30" height="26.54168" width="198.31601" y="285.11888" x="551.24418" stroke-width="1.5" fill="#eef2f5"/>
  <rect stroke="#eef2f5" transform="rotate(90 545.2588500976564,505.8192443847657) " rx="2" id="svg_59" height="26.54168" width="90.88696" y="492.5484" x="499.81537" stroke-width="1.5" fill="#eef2f5"/>
  <rect stroke="#eef2f5" transform="rotate(90 154.39996337890622,274.3895568847657) " rx="2" id="svg_74" height="26.54168" width="54.31535" y="261.11872" x="127.24228" stroke-width="1.5" fill="#eef2f5"/>
  <rect stroke="#eef2f5" rx="2" id="svg_1" height="26.54168" width="313.52068" y="237.04066" x="62.73788" stroke-width="1.5" fill="#eef2f5"/>
  <rect id="svg_2" height="0" width="1" y="330.86601" x="533.95715" stroke-width="1.5" stroke="#eef2f5" fill="#eef2f5"/>
  <rect stroke="#eef2f5" transform="rotate(90 780.6685180664062,71.54972839355476) " rx="2" id="svg_20" height="26.54168" width="57.11802" y="58.27889" x="752.10951" stroke-width="1.5" fill="#eef2f5"/>
  <rect stroke="#eef2f5" transform="rotate(90 745.3060302734375,92.03306579589851) " rx="2" id="svg_21" height="26.54168" width="97.32678" y="78.76222" x="696.64265" stroke-width="1.5" fill="#eef2f5"/>
  <rect stroke="#eef2f5" transform="rotate(90 710.4024658203125,119.53172302246101) " rx="2" id="svg_22" height="26.54168" width="151.45865" y="106.26088" x="634.67317" stroke-width="1.5" fill="#eef2f5"/>
  <rect stroke="#eef2f5" transform="rotate(90 575.7985229492189,107.98213195800786) " rx="2" id="svg_24" height="26.54168" width="130.88713" y="94.71129" x="510.35499" stroke-width="1.5" fill="#eef2f5"/>
  <rect stroke="#eef2f5" transform="rotate(90 518.9912109375001,279.26681518554693) " rx="2" id="svg_40" height="26.54168" width="73.68952" y="265.99598" x="482.14645" stroke-width="1.5" fill="#eef2f5"/>
  <rect stroke="#eef2f5" transform="rotate(90 274.4005126953125,291.81820678710943) " rx="2" id="svg_73" height="26.54168" width="170.31589" y="278.54737" x="189.24257" stroke-width="1.5" fill="#eef2f5"/>
  <rect stroke="#eef2f5" rx="2" id="svg_29" height="26.54168" width="407.37684" y="293.70917" x="356.32372" stroke-width="1.5" fill="#eef2f5"/>
  <rect stroke="#eef2f5" rx="2" id="svg_32" height="26.54168" width="233.09033" y="105.13688" x="455.18133" stroke-width="1.5" fill="#eef2f5"/>
  <rect stroke="#eef2f5" transform="rotate(90 368.6866149902344,76.96012878417973) " rx="2" id="svg_33" height="26.54168" width="64.02968" y="63.68929" x="336.6718" stroke-width="1.5" fill="#eef2f5"/>
  <rect stroke="#eef2f5" transform="rotate(90 390.61669921875006,481.4871826171875) " rx="2" id="svg_38" height="26.54168" width="127.04121" y="468.21634" x="327.09611" stroke-width="1.5" fill="#eef2f5"/>
  <rect stroke="#eef2f5" transform="rotate(90 217.8750915527344,115.74743652343751) " rx="2" id="svg_42" height="26.54168" width="102.46966" y="102.4766" x="166.64026" stroke-width="1.5" fill="#eef2f5"/>
  <rect stroke="#eef2f5" transform="rotate(90 259.58956909179693,137.74754333496097) " rx="2" id="svg_43" height="26.54168" width="67.61237" y="124.4767" x="225.78338" stroke-width="1.5" fill="#eef2f5"/>
  <rect stroke="#eef2f5" rx="2" id="svg_44" height="26.54168" width="189.66156" y="328.56647" x="182.60864" stroke-width="1.5" fill="#eef2f5"/>
  <rect stroke="#eef2f5" transform="rotate(90 696.1166381835939,420.9617309570313) " rx="2" id="svg_46" height="26.54168" width="179.45878" y="407.69089" x="606.38729" stroke-width="1.5" fill="#eef2f5"/>
  <rect stroke="#eef2f5" transform="rotate(90 613.2592163085938,38.674194335937564) " rx="2" id="svg_47" height="26.54168" width="52.60106" y="25.40335" x="586.95868" stroke-width="1.5" fill="#eef2f5"/>
  <rect stroke="#eef2f5" transform="rotate(90 569.8303833007814,228.96084594726568) " rx="2" id="svg_48" height="26.54168" width="59.45823" y="215.69" x="540.10128" stroke-width="1.5" fill="#eef2f5"/>
  <rect stroke="#eef2f5" transform="rotate(90 496.68719482421875,393.24728393554693) " rx="2" id="svg_49" height="26.54168" width="69.17256" y="379.97645" x="462.10091" stroke-width="1.5" fill="#eef2f5"/>
  <rect stroke="#eef2f5" rx="2" id="svg_50" height="26.54168" width="243.3761" y="240.56606" x="546.61031" stroke-width="1.5" fill="#eef2f5"/>
  <rect stroke="#eef2f5" rx="2" id="svg_51" height="26.54168" width="321.66216" y="450.28131" x="471.1814" stroke-width="1.5" fill="#eef2f5"/>
  <rect stroke="#eef2f5" transform="rotate(90 182.0443420410156,478.05859375000006) " rx="2" id="svg_58" height="26.54168" width="127.04121" y="464.78775" x="118.52373" stroke-width="1.5" fill="#eef2f5"/>
  <rect stroke="#eef2f5" rx="2" id="svg_53" height="26.54168" width="222.66314" y="449.61304" x="142.73823" stroke-width="1.5" fill="#eef2f5"/>
  <rect stroke="#eef2f5" transform="rotate(90 75.01730346679683,417.17736816406256) " rx="2" id="svg_56" height="26.54168" width="67.61237" y="403.90654" x="41.21112" stroke-width="1.5" fill="#eef2f5"/>
  <rect stroke="#eef2f5" transform="rotate(90 37.30284881591792,427.1774291992188) " rx="2" id="svg_55" height="26.54168" width="102.46966" y="413.90659" x="-13.93199" stroke-width="1.5" fill="#eef2f5"/>
  <rect stroke="#eef2f5" rx="2" id="svg_60" height="26.54168" width="224.51885" y="540.60217" x="483.42317" stroke-width="1.5" fill="#eef2f5"/>
  <rect stroke="#eef2f5" transform="rotate(90 626.402099609375,554.3908691406251) " rx="2" id="svg_61" height="26.54168" width="69.17256" y="541.12003" x="591.81578" stroke-width="1.5" fill="#eef2f5"/>
  <rect stroke="#eef2f5" transform="rotate(90 180.1143493652344,62.67433166503908) " rx="2" id="svg_63" height="26.54168" width="75.4583" y="49.40349" x="142.38521" stroke-width="1.5" fill="#eef2f5"/>
  <rect stroke="#eef2f5" transform="rotate(90 332.1150512695313,99.24592590332034) " rx="2" id="svg_64" height="26.54168" width="75.4583" y="85.97508" x="294.3859" stroke-width="1.5" fill="#eef2f5"/>
  <rect stroke="#eef2f5" transform="rotate(90 30.970802307128896,125.81748962402345) " rx="2" id="svg_65" height="26.54168" width="215.45893" y="112.54665" x="-76.75866" stroke-width="1.5" fill="#eef2f5"/>
  <rect stroke="#eef2f5" transform="rotate(90 92.11394500732422,103.81739807128908) " rx="2" id="svg_66" height="26.54168" width="64.02968" y="90.54655" x="60.0991" stroke-width="1.5" fill="#eef2f5"/>
  <rect stroke="#eef2f5" rx="2" id="svg_68" height="26.54168" width="117.66124" y="312.56638" x="7.75076" stroke-width="1.5" fill="#eef2f5"/>
  <rect stroke="#eef2f5" rx="2" id="svg_69" height="26.54168" width="93.66113" y="273.13763" x="28.89371" stroke-width="1.5" fill="#eef2f5"/>
  <rect stroke="#eef2f5" rx="2" id="svg_71" height="26.54168" width="224.51885" y="536.03072" x="21.70679" stroke-width="1.5" fill="#eef2f5"/>
  <rect stroke="#eef2f5" transform="rotate(90 237.2574157714843,552.1051025390626) " rx="2" id="svg_72" height="26.54168" width="69.17256" y="538.83431" x="202.67115" stroke-width="1.5" fill="#eef2f5"/>
  <rect stroke="#eef2f5" rx="2" id="svg_75" height="26.54168" width="31.94657" y="487.99575" x="324.32362" stroke-width="1.5" fill="#eef2f5"/>
  <rect stroke="#eef2f5" rx="2" id="svg_76" height="26.54168" width="45.66092" y="519.42447" x="304.32353" stroke-width="1.5" fill="#eef2f5"/>
  <rect stroke="#eef2f5" rx="2" id="svg_52" height="26.54168" width="222.66314" y="369.04125" x="0.45187" stroke-width="1.5" fill="#eef2f5"/>
  <rect stroke="#eef2f5" transform="rotate(90 118.97123718261714,263.5324096679688) " rx="2" id="svg_54" height="26.54168" width="183.4588" y="250.26158" x="27.24184" stroke-width="1.5" fill="#eef2f5"/>
  <rect stroke="#eef2f5" transform="rotate(90 238.41851806640628,255.26670837402344) " rx="2" id="svg_45" height="26.54168" width="85.11814" y="241.99586" x="195.85944" stroke-width="1.5" fill="#eef2f5"/>
  <rect stroke="#eef2f5" rx="2" id="svg_26" height="26.54168" width="477.66285" y="198.85159" x="194.03729" stroke-width="1.5" fill="#eef2f5"/>
  <rect stroke="#eef2f5" transform="rotate(90 364.6866455078125,315.81835937500006) " rx="2" id="svg_28" height="26.54168" width="156.60153" y="302.54752" x="286.38586" stroke-width="1.5" fill="#eef2f5"/>
  <rect stroke="#eef2f5" transform="rotate(90 352.68649291992193,502.6764221191406) " rx="2" id="svg_39" height="26.54168" width="180.60164" y="489.40557" x="262.38569" stroke-width="1.5" fill="#eef2f5"/>
  <rect stroke="#eef2f5" transform="rotate(90 442.4194641113281,332.12414550781256) " rx="2" id="svg_37" height="26.54168" width="118.83258" y="318.85332" x="383.00319" stroke-width="1.5" fill="#eef2f5"/>
  <rect stroke="#eef2f5" rx="2" id="svg_35" height="26.54168" width="479.37714" y="411.99542" x="282.60911" stroke-width="1.5" fill="#eef2f5"/>
  <rect stroke="#eef2f5" rx="2" id="svg_62" height="26.54168" width="233.09033" y="63.99383" x="-0.2493" stroke-width="1.5" fill="#eef2f5"/>
  <rect stroke="#eef2f5" rx="2" id="svg_27" height="26.54168" width="439.37698" y="146.92911" x="171.53279" stroke-width="1.5" fill="#eef2f5"/>
  <rect stroke="#eef2f5" transform="rotate(90 462.5025634765625,143.09159851074224) " rx="2" id="svg_25" height="26.54168" width="198.40311" y="129.82076" x="363.30098" stroke-width="1.5" fill="#eef2f5"/>
  <rect stroke="#eef2f5" rx="2" id="svg_23" height="26.54168" width="493.09149" y="41.74276" x="300.56519" stroke-width="1.5" fill="#eef2f5"/>
 </g>
</svg>